<?xml version="1.0" encoding="UTF-8"?>
<svg width="100pt" height="100pt" version="1.1" viewBox="0 0 100 100" xmlns="http://www.w3.org/2000/svg">
 <path d="m51.832 64.715c0-0.003906 0.003907-0.007813 0.003907-0.011719-0.019532 0.003906-0.023438 0.007813-0.003907 0.011719z" fill="#fff"/>
 <path d="m11.137 54.211 25.941 25.945c2.2305 2.2305 5.8516 2.2305 8.082 0 2.2305-2.2305 2.2305-5.8516 0-8.082l-16.184-16.188h54.922c3.1562 0 5.7148-2.5586 5.7148-5.7148s-2.5586-5.7148-5.7148-5.7148h-54.922l16.188-16.188c2.2305-2.2305 2.2305-5.8516 0-8.082-1.1133-1.1133-2.5781-1.6758-4.0391-1.6758s-2.9258 0.55859-4.0391 1.6758l-25.949 25.941c-2.2305 2.2305-2.2305 5.8516 0 8.082z" fill="#fff"/>
</svg>
